<svg xmlns="http://www.w3.org/2000/svg" viewBox="0 0 64 64" fill="none">
  <rect x="4" y="6" width="56" height="52" rx="20" fill="#F4DFBF" stroke="#7A6250" stroke-width="3"/>
  <path d="M33 15c1-6 7-10 13-9-1 7-5 12-13 14" fill="#95B686" stroke="#7A6250" stroke-width="2.4" stroke-linecap="round" stroke-linejoin="round"/>
  <path d="M31 17c2 2 3 5 3 8" stroke="#7A6250" stroke-width="2.4" stroke-linecap="round"/>
  <path d="M32 20c-12 0-20 9-20 20 0 10 8 18 20 18s20-8 20-18c0-11-8-20-20-20Z" fill="#FFFAF3" stroke="#7A6250" stroke-width="3"/>
  <circle cx="25.5" cy="35.5" r="2.6" fill="#7A6250"/>
  <circle cx="38.5" cy="35.5" r="2.6" fill="#7A6250"/>
  <path d="M26 42c2.1 2.6 9.9 2.6 12 0" stroke="#7A6250" stroke-width="2.6" stroke-linecap="round"/>
  <circle cx="20.5" cy="40" r="3.2" fill="#EFB3A5" opacity=".8"/>
  <circle cx="43.5" cy="40" r="3.2" fill="#EFB3A5" opacity=".8"/>
  <path d="M46.4 16.7c1.8-2.3 5.1-2.4 6.7-.5 1.7 2 1.5 5.1-.5 6.9-1.6 1.5-3.4 2.6-6.2 4.5-2.8-1.9-4.6-3-6.2-4.5-2-1.8-2.2-4.9-.5-6.9 1.6-1.9 4.9-1.8 6.7.5Z" fill="#EFB3A5" stroke="#7A6250" stroke-width="1.6"/>
</svg>